<svg width="768" height="362" viewBox="0 0 768 362" fill="none" xmlns="http://www.w3.org/2000/svg">
<circle opacity="0.1" cx="383.377" cy="177.966" r="177.966" fill="url(#paint0_linear)"/>
<circle opacity="0.3" cx="383.377" cy="177.966" r="142.373" fill="url(#paint1_linear)"/>
<g filter="url(#filter0_d)">
<path d="M776.039 360.514L776.039 296.068L776.039 260.55L776.039 223.848L776.039 201.945L776.039 160.507C772.756 158.456 785.739 134.394 780.911 132.685C718.338 110.805 718.108 104.728 629.271 107.395C556.657 109.515 489.642 129.958 418.38 124.42C359.863 119.907 322.977 99.532 271.606 88.6606C212.316 76.1482 132.942 77.4473 75.5845 90.9169C18.0336 104.386 -15.9563 129.069 -14.0251 153.479C-12.6732 170.914 5.28741 188.896 -11.5144 205.306C-45.118 238.057 -38.465 241.607 -38.465 278.602L-38.465 295.402C-38.4649 313.501 -38.4648 332.695 -38.465 357.04L48.2459 357.04L311.303 360.514L624.049 360.514C712.709 360.514 685.078 361.608 776.039 360.514Z" fill="#F6F6F6"/>
</g>
<defs>
<filter id="filter0_d" x="-43.0003" y="73" width="829" height="289" filterUnits="userSpaceOnUse" color-interpolation-filters="sRGB">
<feFlood flood-opacity="0" result="BackgroundImageFix"/>
<feColorMatrix in="SourceAlpha" type="matrix" values="0 0 0 0 0 0 0 0 0 0 0 0 0 0 0 0 0 0 127 0"/>
<feOffset dy="-3"/>
<feGaussianBlur stdDeviation="2"/>
<feColorMatrix type="matrix" values="0 0 0 0 0 0 0 0 0 0 0 0 0 0 0 0 0 0 0.1 0"/>
<feBlend mode="normal" in2="BackgroundImageFix" result="effect1_dropShadow"/>
<feBlend mode="normal" in="SourceGraphic" in2="effect1_dropShadow" result="shape"/>
</filter>
<linearGradient id="paint0_linear" x1="195.566" y1="228.814" x2="559.714" y2="221.915" gradientUnits="userSpaceOnUse">
<stop stop-color="#DE5F50"/>
<stop offset="1" stop-color="#DE4B3A"/>
</linearGradient>
<linearGradient id="paint1_linear" x1="233.129" y1="218.644" x2="524.447" y2="213.125" gradientUnits="userSpaceOnUse">
<stop stop-color="#DE5F50"/>
<stop offset="1" stop-color="#DE4B3A"/>
</linearGradient>
</defs>
</svg>
